PathFileType	4	(X/Y/Z)	C:\Users\Basilio\Documents\Thesis Gigler\squatting_fais\c3dfiles\077\SLS_front_pre1\markers_experimental.trc
DataRate	CameraRate	NumFrames	NumMarkers	Units	OrigDataRate	OrigDataStartFrame	OrigNumFrames
200.000000	200.000000	4	60	mm	200.000000	1919	3071
Frame#	Time	FHD			LBHD			RBHD			C7			T10			CLAV			LSHO			LUUPA			LMUPA			LDUPA			LLEP			LMEP			LRAD			LUL			LRFIN			RSHO			RUPA1			RMUPA			RDUPA			RLEP			RMEP			RRAD			RUL			RUFIN			LASI			RASI			USACR			LSACR			RSACR			LTHI1			LTHI2			LTHI3			LTHI4			LLFC			LMFC			LTIB1			LTIB2			LTIB3			LTIB4			LLMAL			LHEE			LMT1			LMT2			LMT5			RTHI			RTHI2			RTHI3			RTHI4			RLFC			RMFC			RTIB1			RTIB2			RTIB3			RTIB4			RLMAL			RMMAL			RHEE			RMT1			RMT2			RMT5			
		X1	Y1	Z1	X2	Y2	Z2	X3	Y3	Z3	X4	Y4	Z4	X5	Y5	Z5	X6	Y6	Z6	X7	Y7	Z7	X8	Y8	Z8	X9	Y9	Z9	X10	Y10	Z10	X11	Y11	Z11	X12	Y12	Z12	X13	Y13	Z13	X14	Y14	Z14	X15	Y15	Z15	X16	Y16	Z16	X17	Y17	Z17	X18	Y18	Z18	X19	Y19	Z19	X20	Y20	Z20	X21	Y21	Z21	X22	Y22	Z22	X23	Y23	Z23	X24	Y24	Z24	X25	Y25	Z25	X26	Y26	Z26	X27	Y27	Z27	X28	Y28	Z28	X29	Y29	Z29	X30	Y30	Z30	X31	Y31	Z31	X32	Y32	Z32	X33	Y33	Z33	X34	Y34	Z34	X35	Y35	Z35	X36	Y36	Z36	X37	Y37	Z37	X38	Y38	Z38	X39	Y39	Z39	X40	Y40	Z40	X41	Y41	Z41	X42	Y42	Z42	X43	Y43	Z43	X44	Y44	Z44	X45	Y45	Z45	X46	Y46	Z46	X47	Y47	Z47	X48	Y48	Z48	X49	Y49	Z49	X50	Y50	Z50	X51	Y51	Z51	X52	Y52	Z52	X53	Y53	Z53	X54	Y54	Z54	X55	Y55	Z55	X56	Y56	Z56	X57	Y57	Z57	X58	Y58	Z58	X59	Y59	Z59	X60	Y60	Z60	

1920	9.595000000000001	-301.8822631835938	1851.117797851563	-1048.07177734375	-438.8889160156251	1739.142944335938	-1118.18896484375	-444.5228881835939	1732.65673828125	-972.0139770507815	-477.7247314453126	1591.701171875	-1058.267456054688	-450.3917541503907	1250.683715820313	-1047.821166992188	-309.1056518554688	1556.5458984375	-1055.58349609375	-331.9117431640626	1594.230590820313	-1229.238647460938	-156.4230499267578	1537.437866210938	-1331.343017578125	-127.6314849853516	1569.796264648438	-1306.894775390625	-88.16579437255861	1533.778076171875	-1337.036987304688	-23.14022445678711	1542.604370117188	-1333.316162109375	-18.73501586914063	1475.787231445313	-1301.276000976563	266.9401245117188	1573.3515625	-1211.855590820313	271.9396057128907	1579.232788085938	-1291.206420898438	367.0156250000001	1600.796142578125	-1224.661743164063	-321.3229370117188	1586.927001953125	-890.5456542968752	-157.4514617919922	1547.999755859375	-790.0657958984377	-133.0503692626953	1575.946411132813	-823.090270996094	-87.54689788818361	1549.144897460938	-792.709899902344	-22.50196647644043	1556.419555664063	-804.3759765625002	-18.9088306427002	1484.1708984375	-834.7145996093752	257.5401306152344	1583.6865234375	-918.7944946289065	269.3730773925782	1593.702758789063	-838.979187011719	353.9262084960938	1606.281982421875	-918.429870605469	-236.1646270751954	1065.843139648438	-1174.010375976563	-252.8216857910157	1115.536743164063	-894.3369140625002	-447.4837341308595	1143.808471679688	-1041.24853515625	-447.343963623047	1112.518432617188	-1068.506713867188	-452.8084106445314	1112.331420898438	-1012.997619628906	-299.8119812011719	844.5295410156252	-1201.9970703125	-271.0580444335938	766.2666015625001	-1193.030639648438	-221.4613189697266	768.4420166015627	-1192.385009765625	-298.2940673828126	715.6838989257814	-1173.532958984375	-270.6459655761719	570.1314697265626	-1139.757690429688	-255.5508575439454	558.7700805664064	-1005.79443359375	-255.9936676025391	350.0465087890626	-1048.57763671875	-288.9411315917969	302.1443786621094	-1116.013061523438	-258.8817749023438	299.6049804687501	-1079.7412109375	-276.4154663085938	225.2768096923829	-1041.684936523438	-349.1837158203126	111.2391662597657	-1077.672241210938	-406.3253784179689	81.0824432373047	-1024.260009765625	-195.1027526855469	54.57641601562501	-1009.523620605469	-191.9924621582032	58.16688537597658	-1052.167358398438	-320.3766479492188	126.4423217773438	-993.507507324219	-85.46726989746095	888.0823974609377	-796.8900146484377	-18.66493797302246	889.7957153320315	-797.149841308594	-0.6108379364013673	918.1986083984377	-805.5222778320315	30.22270202636719	823.055358886719	-802.5483398437502	77.34511566162111	778.0749511718752	-799.7049560546877	114.2053604125977	782.5371704101565	-924.0757446289065	200.6754455566407	698.9993896484376	-808.1119384765627	194.3713836669922	597.9490966796876	-773.524841308594	232.2319641113282	619.7439575195314	-792.4976806640627	263.3030090332032	586.3631591796876	-830.2808227539065	315.6652832031251	401.4795227050782	-781.6613769531252	336.0574035644532	423.181121826172	-868.7361450195315	298.7918090820313	326.7925415039063	-838.2744750976565	474.9544372558595	469.0427246093751	-816.7547607421877	466.9295349121095	469.2628479003907	-779.0286865234377	462.5606079101564	441.9801330566407	-731.1000976562501	
1921	9.6	-302.0776672363282	1851.2802734375	-1048.3095703125	-438.8948364257814	1739.129150390625	-1118.220336914063	-444.524383544922	1732.597534179688	-972.1182861328127	-477.7640686035157	1591.676025390625	-1058.421508789063	-450.4007263183595	1250.639892578125	-1048.004760742188	-309.0987854003907	1556.419677734375	-1055.822387695313	-331.1343688964844	1594.025390625	-1229.275390625	-156.4817810058594	1537.399291992188	-1331.593383789063	-127.6367340087891	1569.788452148438	-1307.07275390625	-88.15306091308595	1533.758666992188	-1337.184448242188	-23.22847557067871	1542.641845703125	-1333.446044921875	-18.70709037780762	1475.73193359375	-1301.380981445313	266.9362792968751	1573.331298828125	-1212.1845703125	271.7963867187501	1579.189208984375	-1291.445434570313	367.0101013183594	1600.80126953125	-1224.972412109375	-321.5156250000001	1586.914306640625	-890.763610839844	-157.4302368164063	1547.835205078125	-790.2299804687502	-132.8475646972657	1576.016235351563	-823.2023925781252	-87.47554779052736	1549.125732421875	-792.952331542969	-22.41024208068848	1556.2705078125	-804.5548095703127	-18.83467674255371	1484.168090820313	-834.9399414062502	258.0278015136719	1582.2841796875	-918.8699340820315	269.4897766113282	1593.568725585938	-839.3887939453127	353.8557434082032	1606.072875976563	-918.8059082031252	-236.2877197265626	1065.96630859375	-1174.361083984375	-252.7684631347657	1115.620849609375	-894.6575317382815	-447.5347595214845	1143.694458007813	-1041.329956054688	-447.4199218750001	1112.206420898438	-1068.529663085938	-452.7634887695314	1112.270385742188	-1013.157592773438	-299.7797241210938	844.4781494140627	-1202.12890625	-271.0956420898438	766.3253784179689	-1193.709838867188	-221.6293182373047	768.3925781250002	-1192.713500976563	-298.3810119628907	715.6430053710939	-1173.790649414063	-270.7503967285157	570.0025024414064	-1140.006591796875	-255.6755676269532	558.7125854492189	-1005.996704101563	-255.8511352539063	350.3045349121094	-1048.678344726563	-289.0172119140626	302.1831054687501	-1116.148559570313	-258.9255065917969	299.8240356445313	-1079.89208984375	-275.9945373535157	225.0845947265626	-1041.523803710938	-349.2386779785157	111.2665328979492	-1077.671508789063	-406.3096923828126	81.12657165527345	-1024.2529296875	-195.0775146484376	54.52307128906251	-1009.563903808594	-192.0094757080079	58.18257904052736	-1052.1845703125	-320.3280944824219	126.4654693603516	-993.531433105469	-85.07405853271486	888.451843261719	-797.2603149414065	-18.13373184204102	890.4759521484377	-797.6253662109377	-0.142427608370781	918.8038330078127	-805.926940917969	30.76804733276368	823.4763183593752	-802.9290161132815	77.78667449951173	778.5205078125002	-800.0664062500002	114.3967895507813	782.9197998046877	-924.5059814453127	201.1101379394532	699.3927612304689	-808.6008911132815	194.8370971679688	598.6044921875001	-773.9337158203127	232.5467987060547	620.0820312500001	-792.955017089844	263.6404113769532	586.5405883789064	-830.7173461914065	315.8299560546876	401.882293701172	-782.0097656250002	336.3825378417969	423.1822814941407	-869.2025146484377	298.7832336425782	327.1258239746094	-838.5653076171877	475.1990356445314	469.1142883300782	-817.302429199219	467.1245422363282	469.3977050781251	-779.5335083007815	462.6919860839845	442.0345764160157	-731.6300659179689	
1922	9.605	-302.0189208984376	1851.154541015625	-1048.31787109375	-439.0179138183595	1739.257446289063	-1118.449340820313	-444.5741577148439	1732.528686523438	-972.243835449219	-477.746307373047	1591.572265625	-1058.57666015625	-450.3579101562501	1250.702880859375	-1048.139404296875	-309.1401977539063	1556.41162109375	-1056.009887695313	-331.4433898925782	1594.160522460938	-1229.432983398438	-156.6400756835938	1537.406372070313	-1331.77587890625	-127.666130065918	1569.76318359375	-1307.251220703125	-88.19531250000001	1533.74365234375	-1337.392822265625	-23.43138122558594	1542.65771484375	-1333.680908203125	-18.82444572448731	1475.77001953125	-1301.616821289063	266.8948974609376	1573.298950195313	-1212.562133789063	272.1138000488282	1579.109985351563	-1291.727294921875	367.1067810058594	1600.5205078125	-1225.395751953125	-321.2742919921876	1586.702026367188	-890.853210449219	-157.4312744140625	1547.635131835938	-790.4421997070315	-132.7595520019532	1575.950439453125	-823.4572753906252	-87.42026519775392	1549.003662109375	-793.1754150390627	-22.35933876037598	1556.129638671875	-804.7210083007815	-18.79945182800293	1483.983764648438	-835.1237792968752	258.0099487304688	1582.112670898438	-919.2244873046877	269.5355834960938	1593.275634765625	-839.7219848632815	353.9383239746094	1605.952880859375	-919.2580566406252	-236.481185913086	1065.90673828125	-1174.632202148438	-252.7329406738282	1115.664428710938	-894.889831542969	-447.4534912109376	1143.69140625	-1041.587768554688	-447.455780029297	1112.086547851563	-1068.65673828125	-452.817352294922	1112.251708984375	-1013.248413085938	-299.8030700683594	844.4932250976565	-1202.32373046875	-271.2443847656251	766.4086914062501	-1193.916748046875	-222.6052856445313	768.2279052734377	-1192.55126953125	-298.3511352539063	715.6576538085939	-1173.919799804688	-270.0532226562501	569.8162231445314	-1139.982177734375	-255.8132019042969	558.7726440429689	-1006.188720703125	-255.9279937744141	350.2562866210938	-1048.82177734375	-289.1163635253907	302.1823425292969	-1116.269409179688	-259.0176696777344	299.7585144042969	-1080.059936523438	-276.0373535156251	225.0874176025391	-1041.616333007813	-349.3573608398438	111.2365264892578	-1077.637329101563	-406.3230895996095	81.07557678222658	-1024.22314453125	-195.0697631835938	54.56735229492189	-1009.590576171875	-191.9674987792969	58.06896972656251	-1052.161376953125	-320.2905883789063	126.4758071899414	-993.5856933593752	-84.70565032958986	888.7258911132815	-797.6626586914065	-17.60312271118164	890.9360961914065	-797.9161376953127	0.2089716196060181	919.0975341796877	-806.4121093750002	31.22617149353028	824.0319824218752	-803.342224121094	78.19380950927736	778.9034423828127	-800.440368652344	114.642204284668	783.1777343750002	-924.9097900390627	201.486312866211	699.5477294921876	-809.2114868164065	195.1203002929688	598.8091430664064	-774.563415527344	232.5068359375001	620.5067749023439	-793.4593505859377	263.8366394042969	586.8314208984376	-831.2626953125002	315.9883422851563	402.0709838867189	-782.518981933594	336.0196228027344	423.2807922363282	-869.461853027344	298.6985778808594	327.3084411621094	-838.9136962890627	475.3755187988282	469.326873779297	-817.8524169921877	467.2896423339845	469.3118591308595	-780.0810546875002	462.8324584960939	442.1822814941407	-732.1067504882814	
1923	9.609999999999999	-302.0714111328126	1851.164184570313	-1048.517822265625	-438.9460754394532	1739.12939453125	-1118.568115234375	-444.508514404297	1733.076171875	-972.6350708007815	-477.7551574707032	1591.567749023438	-1058.744384765625	-450.3339233398439	1250.677856445313	-1048.311157226563	-309.2520141601563	1556.338256835938	-1056.2119140625	-331.3947753906251	1594.14697265625	-1229.60986328125	-156.8380126953125	1537.418701171875	-1331.978271484375	-127.6872634887696	1569.734252929688	-1307.474853515625	-88.27386474609376	1533.695922851563	-1337.553466796875	-23.39832305908203	1542.654907226563	-1333.849365234375	-18.90118980407715	1475.81396484375	-1301.686889648438	266.7156066894532	1573.289794921875	-1212.891479492188	272.2059936523438	1579.078125	-1292.037963867188	367.1759033203126	1600.584716796875	-1225.774169921875	-321.2106933593751	1586.673217773438	-890.993103027344	-157.3393249511719	1547.562622070313	-790.6390380859377	-132.7072143554688	1575.864379882813	-823.7027587890627	-87.33847808837892	1548.840698242188	-793.481140136719	-22.27927970886231	1556.05126953125	-805.0039672851565	-18.76830482482911	1483.8515625	-835.3060302734377	257.9292297363282	1581.952514648438	-919.527526855469	269.6044311523438	1593.192626953125	-840.0544433593752	353.8529968261719	1605.765625	-919.5599365234377	-236.6451568603516	1065.961059570313	-1174.9384765625	-252.7075195312501	1115.737426757813	-895.180603027344	-447.4537048339845	1143.624389648438	-1041.758178710938	-447.4939575195314	1112.121704101563	-1068.871215820313	-452.795623779297	1112.125	-1013.353759765625	-299.6673889160157	844.4254150390627	-1202.508666992188	-271.3237304687501	766.4997558593751	-1194.2041015625	-221.8692779541016	768.2690429687502	-1193.064819335938	-298.5155944824219	715.6843261718751	-1174.11669921875	-270.0757446289063	569.8056640625001	-1140.17724609375	-255.9894714355469	558.7475585937501	-1006.360534667969	-255.9862060546876	350.1543579101563	-1049.046752929688	-289.2398376464844	302.0610351562501	-1116.307983398438	-259.1386718750001	299.7869567871094	-1080.25146484375	-276.0757141113282	225.1239471435547	-1041.703979492188	-348.6745605468751	110.8647537231446	-1077.588989257813	-406.3496704101564	81.03504180908205	-1024.222534179688	-195.0777587890626	54.58349227905275	-1009.645141601563	-191.9523315429688	58.11632156372072	-1052.217529296875	-320.2507629394532	126.4901733398438	-993.5930786132815	-84.3298797607422	889.0291137695315	-798.0120849609377	-17.16516304016114	891.483337402344	-798.3764648437502	0.4815530478954316	919.2581176757815	-806.9307861328127	31.63262557983399	824.361999511719	-803.8572998046877	78.65551757812501	779.243103027344	-800.797546386719	114.7617721557617	783.5722656250002	-925.508972167969	201.8598632812501	700.0316772460939	-809.696472167969	195.4228668212891	599.1289672851564	-774.8038330078127	233.2536010742188	620.6502075195314	-793.9174804687502	264.1176147460938	586.9081420898439	-831.716735839844	316.0021667480469	402.197235107422	-782.7896118164065	335.5900878906251	423.214569091797	-869.856872558594	298.6388854980469	327.2982788085938	-839.2453613281252	475.3832397460939	469.179412841797	-818.2579345703127	467.3571166992189	469.3109436035157	-780.557800292969	462.9379882812501	442.3467102050782	-732.5000000000001	
